<svg height="512pt" viewBox="0 0 512 512" width="512pt" xmlns="http://www.w3.org/2000/svg"><path d="m453.332031 512h-394.664062c-32.363281 0-58.667969-26.304688-58.667969-58.667969v-394.664062c0-32.363281 26.304688-58.667969 58.667969-58.667969h394.664062c32.363281 0 58.667969 26.304688 58.667969 58.667969v394.664062c0 32.363281-26.304688 58.667969-58.667969 58.667969zm-394.664062-480c-14.699219 0-26.667969 11.96875-26.667969 26.667969v394.664062c0 14.699219 11.96875 26.667969 26.667969 26.667969h394.664062c14.699219 0 26.667969-11.96875 26.667969-26.667969v-394.664062c0-14.699219-11.96875-26.667969-26.667969-26.667969zm0 0"/><path d="m256 405.332031c-8.832031 0-16-7.167969-16-16v-266.664062c0-8.832031 7.167969-16 16-16s16 7.167969 16 16v266.664062c0 8.832031-7.167969 16-16 16zm0 0"/><path d="m256 405.332031c-4.097656 0-8.191406-1.554687-11.308594-4.691406l-85.332031-85.332031c-6.25-6.253906-6.25-16.386719 0-22.636719s16.382813-6.25 22.636719 0l74.023437 74.027344 74.027344-74.027344c6.25-6.25 16.386719-6.25 22.636719 0s6.25 16.382813 0 22.636719l-85.335938 85.332031c-3.15625 3.136719-7.25 4.691406-11.347656 4.691406zm0 0"/></svg>