<svg height="512pt" viewBox="-32 0 511 512" width="512pt" xmlns="http://www.w3.org/2000/svg"><path d="m224.359375 426.667969c-94.097656 0-170.664063-76.566407-170.664063-170.667969s76.566407-170.667969 170.664063-170.667969c94.101563 0 170.667969 76.566407 170.667969 170.667969s-76.566406 170.667969-170.667969 170.667969zm0-309.335938c-76.457031 0-138.664063 62.210938-138.664063 138.667969s62.207032 138.667969 138.664063 138.667969c76.460937 0 138.667969-62.210938 138.667969-138.667969s-62.207032-138.667969-138.667969-138.667969zm0 0"/><path d="m224.359375 64c-8.832031 0-16-7.167969-16-16v-32c0-8.832031 7.167969-16 16-16s16 7.167969 16 16v32c0 8.832031-7.167969 16-16 16zm0 0"/><path d="m224.359375 64c-8.832031 0-16-7.167969-16-16v-32c0-8.832031 7.167969-16 16-16s16 7.167969 16 16v32c0 8.832031-7.167969 16-16 16zm0 0"/><path d="m224.359375 64c-8.832031 0-16-7.167969-16-16v-32c0-8.832031 7.167969-16 16-16s16 7.167969 16 16v32c0 8.832031-7.167969 16-16 16zm0 0"/><path d="m224.359375 64c-8.832031 0-16-7.167969-16-16v-32c0-8.832031 7.167969-16 16-16s16 7.167969 16 16v32c0 8.832031-7.167969 16-16 16zm0 0"/><path d="m44.222656 168c-2.710937 0-5.460937-.683594-7.980468-2.15625l-27.730469-16c-7.660157-4.414062-10.285157-14.183594-5.867188-21.84375 4.414063-7.636719 14.164063-10.304688 21.84375-5.84375l27.734375 16c7.660156 4.414062 10.28125 14.183594 5.867188 21.84375-2.964844 5.140625-8.34375 8-13.867188 8zm0 0"/><path d="m432.191406 392c-2.710937 0-5.460937-.683594-7.980468-2.15625l-27.730469-16c-7.640625-4.414062-10.261719-14.207031-5.847657-21.84375 4.417969-7.636719 14.164063-10.28125 21.847657-5.84375l27.730469 16c7.636718 4.414062 10.261718 14.207031 5.847656 21.84375-2.945313 5.140625-8.320313 8-13.867188 8zm0 0"/><path d="m44.222656 168c-2.710937 0-5.460937-.683594-7.980468-2.15625l-27.730469-16c-7.660157-4.414062-10.285157-14.183594-5.867188-21.84375 4.414063-7.636719 14.164063-10.304688 21.84375-5.84375l27.734375 16c7.660156 4.414062 10.28125 14.183594 5.867188 21.84375-2.964844 5.140625-8.34375 8-13.867188 8zm0 0"/><path d="m432.191406 392c-2.710937 0-5.460937-.683594-7.980468-2.15625l-27.730469-16c-7.640625-4.414062-10.261719-14.207031-5.847657-21.84375 4.417969-7.636719 14.164063-10.28125 21.847657-5.84375l27.730469 16c7.636718 4.414062 10.261718 14.207031 5.847656 21.84375-2.945313 5.140625-8.320313 8-13.867188 8zm0 0"/><path d="m44.222656 168c-2.710937 0-5.460937-.683594-7.980468-2.15625l-27.730469-16c-7.660157-4.414062-10.285157-14.183594-5.867188-21.84375 4.414063-7.636719 14.164063-10.304688 21.84375-5.84375l27.734375 16c7.660156 4.414062 10.28125 14.183594 5.867188 21.84375-2.964844 5.140625-8.34375 8-13.867188 8zm0 0"/><path d="m432.191406 392c-2.710937 0-5.460937-.683594-7.980468-2.15625l-27.730469-16c-7.640625-4.414062-10.261719-14.207031-5.847657-21.84375 4.417969-7.636719 14.164063-10.28125 21.847657-5.84375l27.730469 16c7.636718 4.414062 10.261718 14.207031 5.847656 21.84375-2.945313 5.140625-8.320313 8-13.867188 8zm0 0"/><path d="m44.222656 168c-2.710937 0-5.460937-.683594-7.980468-2.15625l-27.730469-16c-7.660157-4.414062-10.285157-14.183594-5.867188-21.84375 4.414063-7.636719 14.164063-10.304688 21.84375-5.84375l27.734375 16c7.660156 4.414062 10.28125 14.183594 5.867188 21.84375-2.964844 5.140625-8.34375 8-13.867188 8zm0 0"/><path d="m432.191406 392c-2.710937 0-5.460937-.683594-7.980468-2.15625l-27.730469-16c-7.640625-4.414062-10.261719-14.207031-5.847657-21.84375 4.417969-7.636719 14.164063-10.28125 21.847657-5.84375l27.730469 16c7.636718 4.414062 10.261718 14.207031 5.847656 21.84375-2.945313 5.140625-8.320313 8-13.867188 8zm0 0"/><path d="m16.53125 392c-5.546875 0-10.921875-2.859375-13.867188-8-4.414062-7.660156-1.789062-17.429688 5.847657-21.84375l27.730469-16c7.683593-4.4375 17.453124-1.816406 21.847656 5.84375 4.414062 7.660156 1.792968 17.429688-5.847656 21.84375l-27.730469 16c-2.519531 1.472656-5.269531 2.15625-7.980469 2.15625zm0 0"/><path d="m404.5 168c-5.546875 0-10.921875-2.859375-13.867188-8-4.414062-7.660156-1.792968-17.429688 5.847657-21.84375l27.730469-16c7.679687-4.460938 17.429687-1.792969 21.847656 5.84375 4.414062 7.660156 1.789062 17.429688-5.847656 21.84375l-27.730469 16c-2.519531 1.472656-5.269531 2.15625-7.980469 2.15625zm0 0"/><path d="m16.53125 392c-5.546875 0-10.921875-2.859375-13.867188-8-4.414062-7.660156-1.789062-17.429688 5.847657-21.84375l27.730469-16c7.683593-4.4375 17.453124-1.816406 21.847656 5.84375 4.414062 7.660156 1.792968 17.429688-5.847656 21.84375l-27.730469 16c-2.519531 1.472656-5.269531 2.15625-7.980469 2.15625zm0 0"/><path d="m404.5 168c-5.546875 0-10.921875-2.859375-13.867188-8-4.414062-7.660156-1.792968-17.429688 5.847657-21.84375l27.730469-16c7.679687-4.460938 17.429687-1.792969 21.847656 5.84375 4.414062 7.660156 1.789062 17.429688-5.847656 21.84375l-27.730469 16c-2.519531 1.472656-5.269531 2.15625-7.980469 2.15625zm0 0"/><path d="m16.53125 392c-5.546875 0-10.921875-2.859375-13.867188-8-4.414062-7.660156-1.789062-17.429688 5.847657-21.84375l27.730469-16c7.683593-4.4375 17.453124-1.816406 21.847656 5.84375 4.414062 7.660156 1.792968 17.429688-5.847656 21.84375l-27.730469 16c-2.519531 1.472656-5.269531 2.15625-7.980469 2.15625zm0 0"/><path d="m404.5 168c-5.546875 0-10.921875-2.859375-13.867188-8-4.414062-7.660156-1.792968-17.429688 5.847657-21.84375l27.730469-16c7.679687-4.460938 17.429687-1.792969 21.847656 5.84375 4.414062 7.660156 1.789062 17.429688-5.847656 21.84375l-27.730469 16c-2.519531 1.472656-5.269531 2.15625-7.980469 2.15625zm0 0"/><path d="m16.53125 392c-5.546875 0-10.921875-2.859375-13.867188-8-4.414062-7.660156-1.789062-17.429688 5.847657-21.84375l27.730469-16c7.683593-4.4375 17.453124-1.816406 21.847656 5.84375 4.414062 7.660156 1.792968 17.429688-5.847656 21.84375l-27.730469 16c-2.519531 1.472656-5.269531 2.15625-7.980469 2.15625zm0 0"/><path d="m404.5 168c-5.546875 0-10.921875-2.859375-13.867188-8-4.414062-7.660156-1.792968-17.429688 5.847657-21.84375l27.730469-16c7.679687-4.460938 17.429687-1.792969 21.847656 5.84375 4.414062 7.660156 1.789062 17.429688-5.847656 21.84375l-27.730469 16c-2.519531 1.472656-5.269531 2.15625-7.980469 2.15625zm0 0"/><path d="m224.359375 512c-8.832031 0-16-7.167969-16-16v-32c0-8.832031 7.167969-16 16-16s16 7.167969 16 16v32c0 8.832031-7.167969 16-16 16zm0 0"/></svg>