<svg height="512pt" viewBox="0 0 512 512" width="512pt" xmlns="http://www.w3.org/2000/svg"><path d="m256 512c-141.164062 0-256-114.835938-256-256s114.835938-256 256-256 256 114.835938 256 256-114.835938 256-256 256zm0-480c-123.519531 0-224 100.480469-224 224s100.480469 224 224 224 224-100.480469 224-224-100.480469-224-224-224zm0 0"/><path d="m256 426.667969c-94.101562 0-170.667969-76.566407-170.667969-170.667969s76.566407-170.667969 170.667969-170.667969 170.667969 76.566407 170.667969 170.667969-76.566407 170.667969-170.667969 170.667969zm0-309.335938c-76.457031 0-138.667969 62.210938-138.667969 138.667969s62.210938 138.667969 138.667969 138.667969 138.667969-62.210938 138.667969-138.667969-62.210938-138.667969-138.667969-138.667969zm0 0"/><path d="m256 341.332031c-47.0625 0-85.332031-38.269531-85.332031-85.332031s38.269531-85.332031 85.332031-85.332031 85.332031 38.269531 85.332031 85.332031-38.269531 85.332031-85.332031 85.332031zm0-138.664062c-29.398438 0-53.332031 23.933593-53.332031 53.332031s23.933593 53.332031 53.332031 53.332031 53.332031-23.933593 53.332031-53.332031-23.933593-53.332031-53.332031-53.332031zm0 0"/></svg>