<svg height="512pt" viewBox="0 0 512 512" width="512pt" xmlns="http://www.w3.org/2000/svg"><path d="m208 448h-149.332031c-32.363281 0-58.667969-26.304688-58.667969-58.667969v-266.664062c0-32.363281 26.304688-58.667969 58.667969-58.667969h42.664062c8.832031 0 16 7.167969 16 16s-7.167969 16-16 16h-42.664062c-14.699219 0-26.667969 11.96875-26.667969 26.667969v266.664062c0 14.699219 11.96875 26.667969 26.667969 26.667969h149.332031c8.832031 0 16 7.167969 16 16s-7.167969 16-16 16zm0 0"/><path d="m346.667969 181.332031c-8.832031 0-16-7.167969-16-16v-42.664062c0-14.699219-11.96875-26.667969-26.667969-26.667969h-42.667969c-8.832031 0-16-7.167969-16-16s7.167969-16 16-16h42.667969c32.363281 0 58.667969 26.304688 58.667969 58.667969v42.664062c0 8.832031-7.167969 16-16 16zm0 0"/><path d="m240 138.667969h-117.332031c-20.589844 0-37.335938-16.746094-37.335938-37.335938v-42.664062c0-8.832031 7.167969-16 16-16h23.554688c6.976562-24.597657 29.652343-42.667969 56.445312-42.667969 26.796875 0 49.472657 18.070312 56.449219 42.667969h23.550781c8.832031 0 16 7.167969 16 16v42.664062c0 20.589844-16.746093 37.335938-37.332031 37.335938zm-122.667969-64v26.664062c0 2.945313 2.390625 5.335938 5.335938 5.335938h117.332031c2.945312 0 5.332031-2.390625 5.332031-5.335938v-26.664062h-21.332031c-8.832031 0-16-7.167969-16-16 0-14.699219-11.96875-26.667969-26.667969-26.667969s-26.664062 11.96875-26.664062 26.667969c0 8.832031-7.167969 16-16 16zm0 0"/><path d="m474.667969 512h-181.335938c-20.585937 0-37.332031-16.746094-37.332031-37.332031v-224c0-20.589844 16.746094-37.335938 37.332031-37.335938h120.984375c15.65625 0 30.398438 6.101563 41.46875 17.195313l39.019532 39.019531c11.09375 11.09375 17.195312 25.8125 17.195312 41.472656v163.648438c0 20.585937-16.746094 37.332031-37.332031 37.332031zm-181.335938-266.667969c-2.941406 0-5.332031 2.390625-5.332031 5.335938v224c0 2.941406 2.390625 5.332031 5.332031 5.332031h181.335938c2.941406 0 5.332031-2.390625 5.332031-5.332031v-163.648438c0-7.019531-2.835938-13.890625-7.808594-18.859375l-39.019531-39.019531c-4.96875-4.96875-11.839844-7.808594-18.855469-7.808594zm0 0"/><path d="m429.332031 362.667969h-96c-8.832031 0-16-7.167969-16-16s7.167969-16 16-16h96c8.832031 0 16 7.167969 16 16s-7.167969 16-16 16zm0 0"/><path d="m429.332031 426.667969h-96c-8.832031 0-16-7.167969-16-16s7.167969-16 16-16h96c8.832031 0 16 7.167969 16 16s-7.167969 16-16 16zm0 0"/></svg>