<svg height="512pt" viewBox="0 0 512 512" width="512pt" xmlns="http://www.w3.org/2000/svg"><path d="m256 133.332031c-8.832031 0-16-7.167969-16-16v-42.664062c0-8.832031 7.167969-16 16-16s16 7.167969 16 16v42.664062c0 8.832031-7.167969 16-16 16zm0 0"/><path d="m256 453.332031c-8.832031 0-16-7.167969-16-16v-42.664062c0-8.832031 7.167969-16 16-16s16 7.167969 16 16v42.664062c0 8.832031-7.167969 16-16 16zm0 0"/><path d="m135.894531 202.667969c-2.710937 0-5.460937-.683594-7.980469-2.15625l-36.949218-21.332031c-7.65625-4.417969-10.28125-14.1875-5.867188-21.847657 4.417969-7.636719 14.167969-10.28125 21.847656-5.84375l36.949219 21.332031c7.636719 4.417969 10.261719 14.210938 5.84375 21.847657-2.921875 5.140625-8.296875 8-13.84375 8zm0 0"/><path d="m413.011719 362.667969c-2.707031 0-5.460938-.683594-7.976563-2.15625l-36.949218-21.332031c-7.636719-4.417969-10.261719-14.210938-5.847657-21.847657 4.394531-7.636719 14.1875-10.300781 21.847657-5.84375l36.949218 21.332031c7.636719 4.417969 10.261719 14.210938 5.84375 21.847657-2.941406 5.140625-8.320312 8-13.867187 8zm0 0"/><path d="m98.988281 362.667969c-5.546875 0-10.925781-2.859375-13.867187-8-4.417969-7.660157-1.792969-17.429688 5.84375-21.847657l36.949218-21.332031c7.679688-4.4375 17.453126-1.792969 21.847657 5.84375 4.414062 7.660157 1.789062 17.429688-5.847657 21.847657l-36.949218 21.332031c-2.515625 1.472656-5.269532 2.15625-7.976563 2.15625zm0 0"/><path d="m376.105469 202.667969c-5.546875 0-10.921875-2.859375-13.867188-8-4.414062-7.660157-1.789062-17.429688 5.847657-21.847657l36.949218-21.332031c7.65625-4.4375 17.449219-1.769531 21.84375 5.84375 4.417969 7.660157 1.792969 17.429688-5.84375 21.847657l-36.949218 21.332031c-2.519532 1.472656-5.269532 2.15625-7.980469 2.15625zm0 0"/><path d="m256 512c-141.164062 0-256-114.835938-256-256s114.835938-256 256-256 256 114.835938 256 256-114.835938 256-256 256zm0-480c-123.519531 0-224 100.480469-224 224s100.480469 224 224 224 224-100.480469 224-224-100.480469-224-224-224zm0 0"/></svg>