<svg height="512pt" viewBox="0 0 512 512" width="512pt" xmlns="http://www.w3.org/2000/svg"><path d="m421.332031 512c-50.003906 0-90.664062-40.683594-90.664062-90.667969v-58.664062h-149.335938v58.664062c0 49.984375-40.660156 90.667969-90.664062 90.667969-50.007813 0-90.667969-40.683594-90.667969-90.667969s40.660156-90.664062 90.667969-90.664062h58.664062v-149.335938h-58.664062c-50.007813 0-90.667969-40.679687-90.667969-90.664062s40.660156-90.667969 90.667969-90.667969c50.003906 0 90.664062 40.683594 90.664062 90.667969v58.664062h149.335938v-58.664062c0-49.984375 40.660156-90.667969 90.664062-90.667969 50.007813 0 90.667969 40.683594 90.667969 90.667969s-40.660156 90.664062-90.667969 90.664062h-58.664062v149.335938h58.664062c50.007813 0 90.667969 40.679687 90.667969 90.664062s-40.660156 90.667969-90.667969 90.667969zm-58.664062-149.332031v58.664062c0 32.363281 26.300781 58.667969 58.664062 58.667969s58.667969-26.304688 58.667969-58.667969-26.304688-58.664062-58.667969-58.664062zm-272 0c-32.363281 0-58.667969 26.300781-58.667969 58.664062s26.304688 58.667969 58.667969 58.667969 58.664062-26.304688 58.664062-58.667969v-58.664062zm90.664062-32h149.335938v-149.335938h-149.335938zm181.335938-181.335938h58.664062c32.363281 0 58.667969-26.300781 58.667969-58.664062s-26.304688-58.667969-58.667969-58.667969-58.664062 26.304688-58.664062 58.667969zm-272-117.332031c-32.363281 0-58.667969 26.304688-58.667969 58.667969s26.304688 58.664062 58.667969 58.664062h58.664062v-58.664062c0-32.363281-26.300781-58.667969-58.664062-58.667969zm0 0"/></svg>