<svg height="511pt" viewBox="-21 0 511 511.98893" width="511pt" xmlns="http://www.w3.org/2000/svg"><path d="m85.828125 511.988281c-47.0625 0-85.332031-38.269531-85.332031-85.332031s38.269531-85.335938 85.332031-85.335938 85.332031 38.273438 85.332031 85.335938c0 14.589844-3.753906 28.992188-10.835937 41.640625-15.0625 26.945313-43.628907 43.691406-74.496094 43.691406zm0-138.667969c-29.417969 0-53.332031 23.9375-53.332031 53.335938s23.914062 53.332031 53.332031 53.332031c19.304687 0 37.140625-10.472656 46.589844-27.328125 4.417969-7.890625 6.742187-16.875 6.742187-26.003906 0-29.398438-23.914062-53.335938-53.332031-53.335938zm0 0"/><path d="m146.351562 476.46875c-2.644531 0-5.3125-.660156-7.789062-2.046875-7.699219-4.308594-10.453125-14.058594-6.144531-21.78125l248.792969-444.460937c4.328124-7.699219 14.058593-10.453126 21.78125-6.144532 7.699218 4.3125 10.453124 14.058594 6.140624 21.78125l-248.808593 444.460938c-2.945313 5.246094-8.363281 8.191406-13.972657 8.191406zm0 0"/><path d="m384.496094 511.988281c-30.871094 0-59.4375-16.746093-74.496094-43.710937-7.085938-12.628906-10.839844-27.03125-10.839844-41.621094 0-47.0625 38.273438-85.335938 85.335938-85.335938 47.058594 0 85.332031 38.273438 85.332031 85.335938s-38.273437 85.332031-85.332031 85.332031zm0-138.667969c-29.421875 0-53.335938 23.9375-53.335938 53.335938 0 9.128906 2.328125 18.113281 6.742188 25.984375 9.449218 16.875 27.285156 27.347656 46.59375 27.347656 29.417968 0 53.332031-23.933593 53.332031-53.332031s-23.914063-53.335938-53.332031-53.335938zm0 0"/><path d="m323.972656 476.46875c-5.613281 0-11.050781-2.945312-13.972656-8.191406l-248.789062-444.480469c-4.3125-7.703125-1.582032-17.449219 6.140624-21.761719 7.746094-4.308594 17.453126-1.554687 21.78125 6.144532l248.789063 444.480468c4.3125 7.703125 1.558594 17.453125-6.140625 21.78125-2.496094 1.367188-5.164062 2.027344-7.808594 2.027344zm0 0"/></svg>