<svg height="512pt" viewBox="0 -43 512 512" width="512pt" xmlns="http://www.w3.org/2000/svg"><path d="m176.585938 308.308594c-4.09375 0-8.191407-1.554688-11.304688-4.691406-6.25-6.25-6.25-16.386719 0-22.636719l158.398438-158.398438c6.25-6.25 16.382812-6.25 22.636718 0 6.25 6.25 6.25 16.382813 0 22.632813l-158.402344 158.402344c-3.15625 3.136718-7.253906 4.691406-11.328124 4.691406zm0 0"/><path d="m334.964844 308.308594c-4.09375 0-8.191406-1.554688-11.304688-4.691406l-158.402344-158.378907c-6.25-6.25-6.25-16.386719 0-22.636719s16.386719-6.25 22.636719 0l158.398438 158.402344c6.25 6.25 6.25 16.382813 0 22.632813-3.136719 3.117187-7.230469 4.671875-11.328125 4.671875zm0 0"/><path d="m375.988281 426.667969h-240c-5.589843 0-10.773437-2.925781-13.671875-7.679688l-119.980468-197.335937c-3.113282-5.097656-3.113282-11.519532 0-16.617188l120-197.332031c2.878906-4.78125 8.085937-7.703125 13.652343-7.703125h240c5.589844 0 10.773438 2.921875 13.675781 7.679688l120 197.332031c3.113282 5.101562 3.113282 11.523437 0 16.621093l-120 197.332032c-2.902343 4.800781-8.085937 7.703125-13.675781 7.703125zm-230.996093-32h221.996093l110.269531-181.335938-110.269531-181.332031h-221.996093l-110.273438 181.332031zm0 0"/></svg>