<svg height="512pt" viewBox="0 0 512 512" width="512pt" xmlns="http://www.w3.org/2000/svg"><path d="m256 512c-141.164062 0-256-114.835938-256-256s114.835938-256 256-256 256 114.835938 256 256-114.835938 256-256 256zm0-480c-123.519531 0-224 100.480469-224 224s100.480469 224 224 224 224-100.480469 224-224-100.480469-224-224-224zm0 0"/><path d="m117.332031 309.332031c-29.417969 0-53.332031-23.933593-53.332031-53.332031s23.914062-53.332031 53.332031-53.332031c29.421875 0 53.335938 23.933593 53.335938 53.332031s-23.914063 53.332031-53.335938 53.332031zm0-74.664062c-11.773437 0-21.332031 9.578125-21.332031 21.332031s9.558594 21.332031 21.332031 21.332031c11.777344 0 21.335938-9.578125 21.335938-21.332031s-9.558594-21.332031-21.335938-21.332031zm0 0"/><path d="m256 309.332031c-29.417969 0-53.332031-23.933593-53.332031-53.332031s23.914062-53.332031 53.332031-53.332031 53.332031 23.933593 53.332031 53.332031-23.914062 53.332031-53.332031 53.332031zm0-74.664062c-11.777344 0-21.332031 9.578125-21.332031 21.332031s9.554687 21.332031 21.332031 21.332031 21.332031-9.578125 21.332031-21.332031-9.554687-21.332031-21.332031-21.332031zm0 0"/><path d="m394.667969 309.332031c-29.421875 0-53.335938-23.933593-53.335938-53.332031s23.914063-53.332031 53.335938-53.332031c29.417969 0 53.332031 23.933593 53.332031 53.332031s-23.914062 53.332031-53.332031 53.332031zm0-74.664062c-11.777344 0-21.335938 9.578125-21.335938 21.332031s9.558594 21.332031 21.335938 21.332031c11.773437 0 21.332031-9.578125 21.332031-21.332031s-9.558594-21.332031-21.332031-21.332031zm0 0"/></svg>