<svg height="512pt" viewBox="0 0 512.00579 512" width="512pt" xmlns="http://www.w3.org/2000/svg"><path d="m15.996094 511.953125c-4.097656 0-8.195313-1.558594-11.308594-4.695313-6.25-6.25-6.25-16.382812 0-22.632812l234.667969-234.667969c6.25-6.25 16.382812-6.25 22.632812 0s6.25 16.386719 0 22.636719l-234.664062 234.664062c-3.136719 3.136719-7.234375 4.695313-11.328125 4.695313zm0 0"/><path d="m167.695312 440.039062c-23.914062 0-48.683593-3.222656-74.496093-9.621093-5.757813-1.429688-10.261719-5.933594-11.667969-11.691407-24-97.152343-3.5625-178.390624 64.320312-255.679687 3.285157-3.714844 8.105469-5.695313 13.078126-5.398437 4.949218.339843 9.46875 2.945312 12.242187 7.082031 7.875 11.753906 16.109375 26.324219 21.71875 42.199219 13.71875-27.949219 27.433594-65.515626 22.761719-97.324219-.875-5.910157 1.644531-11.839844 6.507812-15.316407 75.113282-53.929687 166.804688-85.632812 272.554688-94.2499995 4.757812-.3007815 9.300781 1.3203125 12.609375 4.6289065 3.328125 3.328125 5.011719 7.933593 4.628906 12.605469-11.777344 144.554687-52.949219 239.894531-142.125 329.070312-62.910156 63.015625-128.445313 93.695312-202.132813 93.695312zm-57.300781-38.464843c90.28125 19.648437 163.710938-4.609375 236.800781-77.867188 79.339844-79.339843 118.015626-164.332031 131.113282-289.984375-88.382813 9.8125-165.632813 37.097656-229.972656 81.257813 4.054687 69.292969-50.367188 147.796875-52.800782 151.253906-4.371094 6.207031-12.480468 8.46875-19.433594 5.503906-6.976562-3.007812-10.859374-10.472656-9.34375-17.898437 3.5625-17.300782-3.136718-36.800782-11.09375-52.457032-47.636718 61.503907-61.738281 124.371094-45.269531 200.191407zm0 0"/></svg>