<svg height="512pt" viewBox="-64 0 512 512" width="512pt" xmlns="http://www.w3.org/2000/svg"><path d="m16 512c-8.832031 0-16-7.167969-16-16v-480c0-8.832031 7.167969-16 16-16s16 7.167969 16 16v480c0 8.832031-7.167969 16-16 16zm0 0"/><path d="m346.667969 277.332031h-330.667969c-8.832031 0-16-7.167969-16-16s7.167969-16 16-16h330.667969c2.941406 0 5.332031-2.386719 5.332031-5.332031v-202.667969c0-2.941406-2.390625-5.332031-5.332031-5.332031h-330.667969c-8.832031 0-16-7.167969-16-16s7.167969-16 16-16h330.667969c20.585937 0 37.332031 16.746094 37.332031 37.332031v202.667969c0 20.585938-16.746094 37.332031-37.332031 37.332031zm0 0"/></svg>