<svg height="512pt" viewBox="0 0 512 512" width="512pt" xmlns="http://www.w3.org/2000/svg"><path d="m256 512c-141.164062 0-256-114.835938-256-256s114.835938-256 256-256 256 114.835938 256 256-114.835938 256-256 256zm0-480c-123.519531 0-224 100.480469-224 224s100.480469 224 224 224 224-100.480469 224-224-100.480469-224-224-224zm0 0"/><path d="m320 352c-8.832031 0-16-7.167969-16-16 0-26.476562-21.546875-48-48-48s-48 21.523438-48 48c0 8.832031-7.167969 16-16 16s-16-7.167969-16-16c0-44.117188 35.902344-80 80-80s80 35.882812 80 80c0 8.832031-7.167969 16-16 16zm0 0"/><path d="m482.347656 352h-452.695312c-8.832032 0-16-7.167969-16-16s7.167968-16 16-16h452.695312c8.832032 0 16 7.167969 16 16s-7.167968 16-16 16zm0 0"/><path d="m256 288c-8.832031 0-16-7.167969-16-16v-149.332031c0-8.832031 7.167969-16 16-16s16 7.167969 16 16v149.332031c0 8.832031-7.167969 16-16 16zm0 0"/></svg>