<svg height="512pt" viewBox="-61 0 512 512" width="512pt" xmlns="http://www.w3.org/2000/svg"><path d="m16 512c-8.832031 0-16-7.167969-16-16v-480c0-8.832031 7.167969-16 16-16s16 7.167969 16 16v480c0 8.832031-7.167969 16-16 16zm0 0"/><path d="m362.667969 277.332031h-346.667969c-8.832031 0-16-7.167969-16-16s7.167969-16 16-16h330.601562l-102.761718-77.226562c-9.324219-7.292969-14.507813-17.960938-14.507813-29.4375 0-11.480469 5.183594-22.144531 14.230469-29.226563l103.039062-77.441406h-330.601562c-8.832031 0-16-7.167969-16-16s7.167969-16 16-16h346.667969c14.699219 0 26.664062 11.96875 26.664062 26.667969 0 8.425781-3.816406 16.105469-10.429687 21.117187l-115.863282 87.042969c-.445312.382813-1.707031 1.683594-1.707031 3.859375s1.261719 3.476562 1.984375 4.054688l115.5625 86.824218c6.65625 4.992188 10.453125 12.695313 10.453125 21.121094 0 14.679688-11.964843 26.644531-26.664062 26.644531zm0-245.332031h.210937zm0 0"/></svg>