<svg height="512pt" viewBox="0 0 512 512" width="512pt" xmlns="http://www.w3.org/2000/svg"><path d="m309.332031 432c-16.402343 0-30.738281-10.582031-35.730469-26.304688l-87.125-289.941406c-.535156-1.75-2.390624-3.753906-5.144531-3.753906-2.75 0-4.605469 2.003906-5.226562 3.988281l-34.261719 114.328125c-7.742188 24.980469-30.335938 41.683594-56.296875 41.683594h-69.546875c-8.832031 0-16-7.167969-16-16s7.167969-16 16-16h69.546875c11.839844 0 22.144531-7.636719 25.664063-19.03125l34.304687-114.429688c5.078125-15.957031 19.414063-26.539062 35.816406-26.539062 16.40625 0 30.742188 10.582031 35.734375 26.304688l87.125 289.941406c.535156 1.75 2.390625 3.753906 5.140625 3.753906 2.5625 0 4.097657-1.492188 4.738281-2.902344l54.675782-122.429687c9.34375-21.035157 30.421875-34.667969 53.652344-34.667969h73.601562c8.832031 0 16 7.167969 16 16s-7.167969 16-16 16h-73.601562c-10.601563 0-20.179688 6.164062-24.425782 15.679688l-54.632812 122.261718c-5.71875 13.3125-19.09375 22.058594-34.007813 22.058594zm0 0"/><path d="m256 512c-141.164062 0-256-114.835938-256-256s114.835938-256 256-256 256 114.835938 256 256-114.835938 256-256 256zm0-480c-123.519531 0-224 100.480469-224 224s100.480469 224 224 224 224-100.480469 224-224-100.480469-224-224-224zm0 0"/></svg>