<svg height="512pt" viewBox="0 0 512 512.01416" width="512pt" xmlns="http://www.w3.org/2000/svg"><path d="m410.671875 512.015625h-85.332031c-8.832032 0-16-7.167969-16-16v-144c0-2.945313-2.390625-5.335937-5.332032-5.335937h-96c-2.945312 0-5.335937 2.390624-5.335937 5.335937v144c0 8.832031-7.167969 16-16 16h-85.332031c-20.585938 0-37.332032-16.75-37.332032-37.335937v-197.332032h-37.335937c-14.695313 0-26.6640625-11.96875-26.6640625-26.667968 0-7.058594 2.8789065-13.972657 7.8945315-18.984376l237.03125-227.242187c6.082031-5.847656 15.703125-5.953125 21.910156-.214844l74.496094 68.691407v-35.582032c0-8.832031 7.167968-16 16-16h74.667968c8.832032 0 16 7.167969 16 16v139.199219l56 55.039063c5.121094 5.121093 8 12.035156 8 19.09375 0 14.699218-11.96875 26.667968-26.667968 26.667968h-37.332032v197.332032c0 20.585937-16.746093 37.335937-37.335937 37.335937zm-69.332031-32h69.332031c2.902344 0 5.335937-2.433594 5.335937-5.335937v-213.332032c0-8.832031 7.167969-16 16-16h40.363282l-51.5625-50.667968c-3.074219-3.007813-4.800782-7.125-4.800782-11.414063v-129.917969h-42.667968v56.105469c0 6.359375-3.753906 12.097656-9.578125 14.65625-5.800781 2.582031-12.585938 1.410156-17.257813-2.902344l-90.285156-83.242187-216.339844 207.382812h40.128906c8.832032 0 16 7.167969 16 16v213.332032c0 2.902343 2.429688 5.335937 5.332032 5.335937h69.332031v-128c0-20.589844 16.75-37.335937 37.335937-37.335937h96c20.585938 0 37.332032 16.746093 37.332032 37.335937zm0 0"/></svg>