<svg height="469.34933pt" viewBox="0 0 469.34933 469.34933" width="469.34933pt" xmlns="http://www.w3.org/2000/svg"><path d="m368 469.347656h-309.332031c-32.363281 0-58.667969-26.300781-58.667969-58.664062v-309.335938c0-32.359375 26.304688-58.664062 58.667969-58.664062h202.664062c8.832031 0 16 7.167968 16 16 0 8.832031-7.167969 16-16 16h-202.664062c-14.699219 0-26.667969 11.96875-26.667969 26.664062v309.335938c0 14.699218 11.96875 26.664062 26.667969 26.664062h309.332031c14.699219 0 26.667969-11.964844 26.667969-26.664062v-202.667969c0-8.832031 7.167969-16 16-16s16 7.167969 16 16v202.667969c0 32.363281-26.304688 58.664062-58.667969 58.664062zm0 0"/><path d="m346.667969 277.347656h-138.667969c-8.832031 0-16-7.167968-16-16v-138.664062c0-8.832032 7.167969-16 16-16s16 7.167968 16 16v122.664062h122.667969c8.832031 0 16 7.167969 16 16 0 8.832032-7.167969 16-16 16zm0 0"/><path d="m208 277.347656c-4.097656 0-8.191406-1.554687-11.308594-4.691406-6.25-6.25-6.25-16.382812 0-22.636719l245.335938-245.332031c6.25-6.25 16.382812-6.25 22.632812 0s6.25 16.382812 0 22.636719l-245.332031 245.332031c-3.136719 3.136719-7.230469 4.691406-11.328125 4.691406zm0 0"/></svg>