<svg height="511pt" viewBox="0 0 511 511.76267" width="511pt" xmlns="http://www.w3.org/2000/svg"><path d="m256.242188 511.761719c-65.558594 0-131.113282-24.9375-181.011719-74.859375-99.796875-99.816406-99.796875-262.226563 0-362.046875 99.816406-99.816407 262.226562-99.796875 362.046875 0 99.796875 99.820312 99.796875 262.230469 0 362.046875-49.921875 49.921875-115.476563 74.859375-181.035156 74.859375zm0-479.765625c-57.363282 0-114.730469 21.824218-158.398438 65.496094-87.320312 87.335937-87.320312 229.4375 0 316.796874 87.335938 87.320313 229.4375 87.320313 316.800781 0 87.316407-87.335937 87.316407-229.4375 0-316.796874-43.671875-43.671876-101.035156-65.496094-158.402343-65.496094zm0 0"/><path d="m256.242188 383.847656c-32.789063 0-65.558594-12.480468-90.515626-37.441406-49.898437-49.898438-49.898437-131.113281 0-181.011719 49.898438-49.917969 131.113282-49.917969 181.011719 0 49.898438 49.898438 49.898438 131.113281 0 181.011719-24.9375 24.960938-57.707031 37.441406-90.496093 37.441406zm0-223.914062c-24.574219 0-49.171876 9.34375-67.882813 28.074218-37.417969 37.441407-37.417969 98.324219 0 135.765626 37.441406 37.441406 98.324219 37.441406 135.765625 0 37.417969-37.441407 37.417969-98.324219 0-135.765626-18.710938-18.730468-43.304688-28.074218-67.882812-28.074218zm0 0"/><path d="m150.941406 234.492188c-4.097656 0-8.191406-1.554688-11.308594-4.691407l-94.890624-94.890625c-6.25-6.25-6.25-16.386718 0-22.636718 6.253906-6.25 16.386718-6.25 22.636718 0l94.890625 94.890624c6.25 6.25 6.25 16.386719 0 22.636719-3.136719 3.113281-7.230469 4.691407-11.328125 4.691407zm0 0"/><path d="m388.53125 472.0625c-4.097656 0-8.191406-1.558594-11.308594-4.695312l-94.71875-94.71875c-6.25-6.25-6.25-16.382813 0-22.636719 6.25-6.25 16.382813-6.25 22.632813 0l94.722656 94.722656c6.25 6.25 6.25 16.382813 0 22.632813-3.136719 3.136718-7.234375 4.695312-11.328125 4.695312zm0 0"/><path d="m218.84375 166.589844c-4.09375 0-8.191406-1.558594-11.304688-4.695313l-94.890624-94.867187c-6.25-6.25-6.25-16.382813 0-22.636719 6.25-6.25 16.382812-6.25 22.632812 0l94.890625 94.890625c6.253906 6.253906 6.253906 16.386719 0 22.636719-3.15625 3.113281-7.25 4.671875-11.328125 4.671875zm0 0"/><path d="m456.414062 404.179688c-4.097656 0-8.191406-1.558594-11.308593-4.695313l-94.71875-94.71875c-6.25-6.25-6.25-16.382813 0-22.636719 6.25-6.25 16.382812-6.25 22.632812 0l94.722657 94.722656c6.25 6.25 6.25 16.382813 0 22.632813-3.136719 3.136719-7.234376 4.695313-11.328126 4.695313zm0 0"/><path d="m123.953125 472.0625c-4.09375 0-8.191406-1.558594-11.304687-4.695312-6.25-6.25-6.25-16.382813 0-22.632813l94.890624-94.890625c6.25-6.25 16.382813-6.25 22.632813 0 6.253906 6.25 6.253906 16.382812 0 22.632812l-94.890625 94.890626c-3.132812 3.136718-7.230469 4.695312-11.328125 4.695312zm0 0"/><path d="m361.691406 234.324219c-4.09375 0-8.191406-1.558594-11.304687-4.695313-6.25-6.25-6.25-16.382812 0-22.632812l94.71875-94.722656c6.25-6.25 16.386719-6.25 22.636719 0s6.25 16.386718 0 22.636718l-94.722657 94.71875c-3.132812 3.136719-7.230469 4.695313-11.328125 4.695313zm0 0"/><path d="m56.070312 404.179688c-4.09375 0-8.191406-1.558594-11.304687-4.695313-6.25-6.25-6.25-16.382813 0-22.632813l94.890625-94.890624c6.25-6.25 16.382812-6.25 22.632812 0 6.253907 6.25 6.253907 16.382812 0 22.632812l-94.890624 94.890625c-3.15625 3.136719-7.230469 4.695313-11.328126 4.695313zm0 0"/><path d="m293.8125 166.441406c-4.097656 0-8.195312-1.558594-11.308594-4.695312-6.25-6.25-6.25-16.382813 0-22.632813l94.71875-94.722656c6.253906-6.25 16.386719-6.25 22.636719 0 6.25 6.253906 6.25 16.386719 0 22.636719l-94.722656 94.71875c-3.132813 3.136718-7.230469 4.695312-11.324219 4.695312zm0 0"/></svg>