<svg height="469pt" viewBox="0 -181 469.33333 469" width="469pt" xmlns="http://www.w3.org/2000/svg"><path d="m432 106.832031h-394.667969c-20.585937 0-37.332031-16.746093-37.332031-37.332031v-32c0-20.585938 16.746094-37.332031 37.332031-37.332031h394.667969c20.585938 0 37.332031 16.746093 37.332031 37.332031v32c0 20.585938-16.746093 37.332031-37.332031 37.332031zm-394.667969-74.664062c-2.941406 0-5.332031 2.386719-5.332031 5.332031v32c0 2.945312 2.390625 5.332031 5.332031 5.332031h394.667969c2.945312 0 5.332031-2.386719 5.332031-5.332031v-32c0-2.945312-2.386719-5.332031-5.332031-5.332031zm0 0"/></svg>