<svg height="512pt" viewBox="0 0 512 512" width="512pt" xmlns="http://www.w3.org/2000/svg"><path d="m346.660156 330.667969c-91.15625 0-165.332031-74.175781-165.332031-165.335938 0-91.15625 74.175781-165.332031 165.332031-165.332031 91.160156 0 165.335938 74.175781 165.335938 165.332031 0 91.160157-74.175782 165.335938-165.335938 165.335938zm0-298.667969c-73.511718 0-133.332031 59.820312-133.332031 133.332031 0 73.515625 59.820313 133.335938 133.332031 133.335938 73.515625 0 133.335938-59.820313 133.335938-133.335938 0-73.511719-59.820313-133.332031-133.335938-133.332031zm0 0"/><path d="m15.996094 512c-4.097656 0-8.195313-1.558594-11.308594-4.691406-6.25-6.253906-6.25-16.386719 0-22.636719l225.066406-225.066406c6.25-6.25 16.382813-6.25 22.636719 0 6.25 6.25 6.25 16.382812 0 22.632812l-225.089844 225.070313c-3.113281 3.132812-7.210937 4.691406-11.304687 4.691406zm0 0"/><path d="m261.328125 181.332031c-8.832031 0-16-7.167969-16-16 0-55.871093 45.460937-101.332031 101.332031-101.332031 8.832032 0 16 7.167969 16 16s-7.167968 16-16 16c-38.226562 0-69.332031 31.105469-69.332031 69.332031 0 8.832031-7.167969 16-16 16zm0 0"/></svg>