<svg height="512pt" viewBox="0 0 512 512.01867" width="512pt" xmlns="http://www.w3.org/2000/svg"><path d="m278.578125 421.652344c-9.964844 0-19.351563-3.882813-26.390625-10.945313l-150.867188-150.847656c-7.0625-7.0625-10.945312-16.425781-10.945312-26.390625 0-9.960938 3.882812-19.347656 10.945312-26.390625l10.132813-10.152344c11.09375-11.09375 25.8125-17.195312 41.492187-17.195312h24.980469c7.125 0 13.824219-2.773438 18.839844-7.808594l61.160156-61.160156c6.101563-6.101563 8.191407-14.957031 5.460938-23.128907-6.570313-19.753906-1.511719-41.171874 13.207031-55.871093l20.84375-20.839844c14.570312-14.550781 38.226562-14.574219 52.796875 0l150.851563 150.847656c14.570312 14.546875 14.570312 38.25 0 52.796875l-20.84375 20.84375c-14.722657 14.71875-36.160157 19.753906-55.871094 13.207032-8.171875-2.710938-17.027344-.640626-23.128906 5.460937l-61.160157 61.140625c-5.035156 5.035156-7.808593 11.734375-7.808593 18.859375v24.980469c0 15.679687-6.101563 30.398437-17.195313 41.492187l-10.132813 10.132813c-7.039062 7.085937-16.40625 10.96875-26.367187 10.96875zm-125.652344-209.898438c-7.128906 0-13.824219 2.769532-18.859375 7.804688l-10.113281 10.132812c-2.070313 2.09375-2.070313 5.464844 0 7.554688l150.847656 150.847656c2.089844 2.089844 5.460938 2.089844 7.550781 0l10.136719-10.132812c5.03125-5.035157 7.804688-11.734376 7.804688-18.859376v-25.003906c0-15.679687 6.101562-30.421875 17.195312-41.492187l61.140625-61.140625c14.699219-14.742188 36.097656-19.796875 55.875-13.207032 8.167969 2.710938 17.042969.621094 23.125-5.460937l20.839844-20.84375c2.09375-2.089844 2.09375-5.460937 0-7.550781l-150.847656-150.847656c-2.089844-2.089844-5.460938-2.070313-7.550782 0l-20.863281 20.863281c-6.101562 6.101562-8.191406 14.957031-5.460937 23.125 6.589844 19.753906 1.535156 41.152343-13.207032 55.871093l-61.140624 61.144532c-11.050782 11.09375-25.792969 17.195312-41.472657 17.195312zm0 0"/><path d="m16.007812 512.019531c-4.097656 0-8.191406-1.558593-11.328124-4.695312-6.230469-6.25-6.230469-16.382813.019531-22.632813l172.160156-171.949218c6.230469-6.226563 16.382813-6.25 22.636719.023437 6.226562 6.25 6.226562 16.382813-.023438 22.632813l-172.160156 171.949218c-3.113281 3.113282-7.210938 4.671875-11.304688 4.671875zm0 0"/></svg>