<svg height="512pt" viewBox="0 0 512 512" width="512pt" xmlns="http://www.w3.org/2000/svg"><path d="m453.332031 384h-42.664062c-8.832031 0-16-7.167969-16-16s7.167969-16 16-16h42.664062c14.699219 0 26.667969-11.96875 26.667969-26.667969v-138.664062c0-14.699219-11.96875-26.667969-26.667969-26.667969h-394.664062c-14.699219 0-26.667969 11.96875-26.667969 26.667969v138.664062c0 14.699219 11.96875 26.667969 26.667969 26.667969h42.664062c8.832031 0 16 7.167969 16 16s-7.167969 16-16 16h-42.664062c-32.363281 0-58.667969-26.304688-58.667969-58.667969v-138.664062c0-32.363281 26.304688-58.667969 58.667969-58.667969h394.664062c32.363281 0 58.667969 26.304688 58.667969 58.667969v138.664062c0 32.363281-26.304688 58.667969-58.667969 58.667969zm0 0"/><path d="m410.667969 160c-8.832031 0-16-7.167969-16-16v-32.148438c0-12.820312-4.992188-24.875-14.058594-33.941406l-31.832031-31.832031c-8.9375-8.957031-21.289063-14.078125-33.941406-14.078125h-170.835938c-14.699219 0-26.667969 11.96875-26.667969 26.667969v85.332031c0 8.832031-7.167969 16-16 16s-16-7.167969-16-16v-85.332031c0-32.363281 26.304688-58.667969 58.667969-58.667969h170.835938c21.058593 0 41.6875 8.535156 56.554687 23.445312l31.832031 31.828126c15.125 15.125 23.445313 35.222656 23.445313 56.578124v32.148438c0 8.832031-7.167969 16-16 16zm0 0"/><path d="m368 512h-224c-32.363281 0-58.667969-26.304688-58.667969-58.667969v-160c0-8.832031 7.167969-16 16-16h309.335938c8.832031 0 16 7.167969 16 16v160c0 32.363281-26.304688 58.667969-58.667969 58.667969zm-250.667969-202.667969v144c0 14.699219 11.96875 26.667969 26.667969 26.667969h224c14.699219 0 26.667969-11.96875 26.667969-26.667969v-144zm0 0"/><path d="m119.636719 504.363281c-4.09375 0-8.191407-1.558593-11.304688-4.695312-6.253906-6.25-6.253906-16.382813 0-22.632813l72.359375-72.34375c5.996094-5.992187 16.621094-5.992187 22.636719 0l42.027344 42.027344c6.25 6.25 6.25 16.386719 0 22.636719s-16.386719 6.25-22.636719 0l-30.71875-30.722657-61.035156 61.058594c-3.136719 3.113282-7.210938 4.671875-11.328125 4.671875zm0 0"/><path d="m390.847656 505.367188c-4.4375 0-8.875-1.835938-12.03125-5.464844l-80.128906-91.582032-52.628906 60.246094c-5.78125 6.65625-15.957032 7.316406-22.570313 1.535156-6.65625-5.804687-7.339843-15.914062-1.515625-22.570312l64.640625-74.027344c3.03125-3.476562 7.425781-5.484375 12.03125-5.484375 4.609375 0 9.003907 1.984375 12.03125 5.464844l92.183594 105.363281c5.800781 6.65625 5.140625 16.746094-1.492187 22.570313-3.011719 2.644531-6.765626 3.949219-10.519532 3.949219zm0 0"/></svg>