<svg height="512pt" viewBox="0 0 512 512" width="512pt" xmlns="http://www.w3.org/2000/svg"><path d="m453.332031 384h-42.664062c-8.832031 0-16-7.167969-16-16s7.167969-16 16-16h42.664062c14.699219 0 26.667969-11.96875 26.667969-26.667969v-138.664062c0-14.699219-11.96875-26.667969-26.667969-26.667969h-394.664062c-14.699219 0-26.667969 11.96875-26.667969 26.667969v138.664062c0 14.699219 11.96875 26.667969 26.667969 26.667969h42.664062c8.832031 0 16 7.167969 16 16s-7.167969 16-16 16h-42.664062c-32.363281 0-58.667969-26.304688-58.667969-58.667969v-138.664062c0-32.363281 26.304688-58.667969 58.667969-58.667969h394.664062c32.363281 0 58.667969 26.304688 58.667969 58.667969v138.664062c0 32.363281-26.304688 58.667969-58.667969 58.667969zm0 0"/><path d="m368 512h-224c-32.363281 0-58.667969-26.304688-58.667969-58.667969v-160c0-8.832031 7.167969-16 16-16h309.335938c8.832031 0 16 7.167969 16 16v160c0 32.363281-26.304688 58.667969-58.667969 58.667969zm-250.667969-202.667969v144c0 14.699219 11.96875 26.667969 26.667969 26.667969h224c14.699219 0 26.667969-11.96875 26.667969-26.667969v-144zm0 0"/><path d="m346.667969 384h-181.335938c-8.832031 0-16-7.167969-16-16s7.167969-16 16-16h181.335938c8.832031 0 16 7.167969 16 16s-7.167969 16-16 16zm0 0"/><path d="m346.667969 448h-181.335938c-8.832031 0-16-7.167969-16-16s7.167969-16 16-16h181.335938c8.832031 0 16 7.167969 16 16s-7.167969 16-16 16zm0 0"/><path d="m410.667969 160c-8.832031 0-16-7.167969-16-16v-32.148438c0-12.820312-4.992188-24.875-14.058594-33.941406l-31.832031-31.832031c-8.9375-8.957031-21.289063-14.078125-33.941406-14.078125h-170.835938c-14.699219 0-26.667969 11.96875-26.667969 26.667969v85.332031c0 8.832031-7.167969 16-16 16s-16-7.167969-16-16v-85.332031c0-32.363281 26.304688-58.667969 58.667969-58.667969h170.835938c21.058593 0 41.6875 8.535156 56.554687 23.445312l31.832031 31.828126c15.125 15.125 23.445313 35.222656 23.445313 56.578124v32.148438c0 8.832031-7.167969 16-16 16zm0 0"/></svg>