<svg height="512pt" viewBox="0 0 512 512" width="512pt" xmlns="http://www.w3.org/2000/svg"><path d="m277.332031 384c0 11.78125-9.550781 21.332031-21.332031 21.332031s-21.332031-9.550781-21.332031-21.332031 9.550781-21.332031 21.332031-21.332031 21.332031 9.550781 21.332031 21.332031zm0 0"/><path d="m256 314.667969c-8.832031 0-16-7.167969-16-16v-21.546875c0-20.308594 12.886719-38.507813 32.019531-45.269532 25.515625-8.980468 42.648438-36.140624 42.648438-55.851562 0-32.363281-26.304688-58.667969-58.667969-58.667969s-58.667969 26.304688-58.667969 58.667969c0 8.832031-7.167969 16-16 16s-16-7.167969-16-16c0-49.984375 40.683594-90.667969 90.667969-90.667969s90.667969 40.683594 90.667969 90.667969c0 35.585938-28.097657 73.386719-63.980469 86.039062-6.378906 2.238282-10.6875 8.316407-10.6875 15.101563v21.527344c0 8.832031-7.167969 16-16 16zm0 0"/><path d="m453.332031 512h-394.664062c-32.363281 0-58.667969-26.304688-58.667969-58.667969v-394.664062c0-32.363281 26.304688-58.667969 58.667969-58.667969h394.664062c32.363281 0 58.667969 26.304688 58.667969 58.667969v394.664062c0 32.363281-26.304688 58.667969-58.667969 58.667969zm-394.664062-480c-14.699219 0-26.667969 11.96875-26.667969 26.667969v394.664062c0 14.699219 11.96875 26.667969 26.667969 26.667969h394.664062c14.699219 0 26.667969-11.96875 26.667969-26.667969v-394.664062c0-14.699219-11.96875-26.667969-26.667969-26.667969zm0 0"/></svg>