<svg height="512pt" viewBox="0 0 512.01007 512" width="512pt" xmlns="http://www.w3.org/2000/svg"><path d="m154.675781 213.339844h-138.664062c-8.832031 0-16.0000002-7.167969-16.0000002-16v-138.667969c0-8.832031 7.1679692-16 16.0000002-16s16 7.167969 16 16v122.667969h122.664062c8.832031 0 16 7.167968 16 16 0 8.832031-7.167969 16-16 16zm0 0"/><path d="m496.011719 469.339844c-8.832031 0-16-7.167969-16-16v-122.667969h-122.667969c-8.832031 0-16-7.167969-16-16s7.167969-16 16-16h138.667969c8.832031 0 16 7.167969 16 16v138.667969c0 8.832031-7.167969 16-16 16zm0 0"/><path d="m256.011719 512.003906c-141.164063 0-256.0000002-114.835937-256.0000002-256 0-8.832031 7.1679692-16 16.0000002-16s16 7.167969 16 16c0 123.519532 100.476562 224 224 224 105.34375 0 199.742187-71.167968 224.46875-169.257812 2.175781-8.574219 10.964843-13.71875 19.433593-11.582032 8.554688 2.152344 13.761719 10.855469 11.605469 19.433594-28.265625 112.0625-135.722656 193.40625-255.507812 193.40625zm0 0"/><path d="m496.011719 272.003906c-8.832031 0-16-7.167968-16-16 0-123.519531-100.480469-224-224-224-105.34375 0-199.746094 71.167969-224.472657 169.261719-2.175781 8.574219-11.007812 13.757813-19.433593 11.582031-8.574219-2.15625-13.757813-10.859375-11.625-19.433594 28.285156-112.066406 135.742187-193.41015575 255.53125-193.41015575 141.160156 0 256 114.83984375 256 255.99999975 0 8.832032-7.167969 16-16 16zm0 0"/></svg>