<svg height="469pt" viewBox="0 0 469 469.33333" width="469pt" xmlns="http://www.w3.org/2000/svg"><path d="m155.429688 329.644531c-4.09375 0-8.191407-1.558593-11.304688-4.695312-6.25-6.25-6.25-16.382813 0-22.632813l158.378906-158.402344c6.25-6.25 16.382813-6.25 22.632813 0s6.25 16.382813 0 22.636719l-158.378907 158.398438c-3.136718 3.136719-7.230468 4.695312-11.328124 4.695312zm0 0"/><path d="m313.808594 329.644531c-4.09375 0-8.191406-1.558593-11.304688-4.695312l-158.378906-158.378907c-6.25-6.25-6.25-16.382812 0-22.632812 6.25-6.253906 16.382812-6.253906 22.632812 0l158.378907 158.398438c6.25 6.25 6.25 16.382812 0 22.632812-3.136719 3.117188-7.230469 4.675781-11.328125 4.675781zm0 0"/><path d="m325.414062 469.332031h-181.140624c-4.246094 0-8.320313-1.683593-11.308594-4.691406l-128.105469-128.085937c-3.007813-3.007813-4.691406-7.082032-4.691406-11.308594v-181.140625c0-4.242188 1.683593-8.320313 4.691406-11.304688l128.085937-128.109375c3.007813-3.007812 7.0625-4.691406 11.308594-4.691406h181.140625c4.242188 0 8.320313 1.683594 11.304688 4.691406l128.085937 128.085938c3.007813 3.007812 4.695313 7.085937 4.695313 11.308594v181.140624c0 4.246094-1.6875 8.320313-4.695313 11.308594l-128.085937 128.082032c-2.964844 3.03125-7.039063 4.714843-11.285157 4.714843zm-174.527343-32h167.894531l118.699219-118.71875v-167.894531l-118.699219-118.71875h-167.894531l-118.71875 118.71875v167.894531zm0 0"/></svg>