<svg height="512pt" viewBox="0 0 512 512.01902" width="512pt" xmlns="http://www.w3.org/2000/svg"><path d="m453.34375 512.019531h-394.667969c-32.363281 0-58.6679685-26.304687-58.6679685-58.667969v-181.332031c0-8.832031 7.1679685-16 15.9999995-16 8.832032 0 16 7.167969 16 16v181.332031c0 14.699219 11.96875 26.667969 26.667969 26.667969h394.667969c14.699219 0 26.664062-11.96875 26.664062-26.667969v-309.332031c0-14.699219-11.964843-26.667969-26.664062-26.667969h-74.667969c-8.832031 0-16-7.167968-16-16 0-8.832031 7.167969-16 16-16h74.667969c32.363281 0 58.664062 26.304688 58.664062 58.667969v309.332031c0 32.363282-26.300781 58.667969-58.664062 58.667969zm0 0"/><path d="m368.007812 341.351562c-5.90625 0-11.476562-3.285156-14.25-8.722656l-.277343-.535156c-30.058594-60.117188-90.367188-97.40625-157.460938-97.40625h-25.34375v69.332031c0 6.527344-3.96875 12.394531-10.027343 14.847657-5.992188 2.453124-12.96875.960937-17.492188-3.753907l-138.667969-144c-5.972656-6.1875-5.972656-16 0-22.1875l138.667969-144c4.5-4.734375 11.457031-6.207031 17.492188-3.753906 6.058593 2.453125 10.027343 8.320313 10.027343 14.847656v69.332031h5.332031c114.691407 0 208 93.3125 208 208v32c0 7.402344-5.054687 13.824219-12.265624 15.554688-1.238282.296875-2.496094.445312-3.734376.445312zm-213.332031-138.664062h41.34375c60.226563 0 115.839844 25.40625 154.644531 68.710938-10.835937-86.71875-85.035156-154.046876-174.65625-154.046876h-21.332031c-8.832031 0-16-7.167968-16-16v-45.652343l-100.457031 104.320312 100.457031 104.320313v-45.652344c0-8.832031 7.167969-16 16-16zm0 0"/></svg>