<svg height="512pt" viewBox="0 0 512 512" width="512pt" xmlns="http://www.w3.org/2000/svg"><path d="m256 512c-8.832031 0-16-7.167969-16-16v-186.667969c0-8.832031 7.167969-16 16-16s16 7.167969 16 16v186.667969c0 8.832031-7.167969 16-16 16zm0 0"/><path d="m256 320c-35.285156 0-64-28.714844-64-64s28.714844-64 64-64 64 28.714844 64 64-28.714844 64-64 64zm0-96c-17.644531 0-32 14.355469-32 32s14.355469 32 32 32 32-14.355469 32-32-14.355469-32-32-32zm0 0"/><path d="m425.601562 441.601562c-4.097656 0-8.214843-1.582031-11.351562-4.714843-6.230469-6.253907-6.207031-16.386719.042969-22.636719 42.390625-42.132812 65.707031-98.347656 65.707031-158.25 0-123.519531-100.480469-224-224-224s-224 100.480469-224 224c0 59.902344 23.316406 116.117188 65.683594 158.25 6.253906 6.230469 6.273437 16.363281.042968 22.636719-6.226562 6.269531-16.382812 6.269531-22.632812.0625-48.425781-48.214844-75.09375-112.46875-75.09375-180.949219 0-141.164062 114.835938-256 256-256s256 114.835938 256 256c0 68.480469-26.667969 132.734375-75.113281 180.949219-3.117188 3.09375-7.191407 4.652343-11.285157 4.652343zm0 0"/><path d="m365.226562 381.226562c-4.117187 0-8.234374-1.578124-11.347656-4.734374-6.230468-6.273438-6.1875-16.40625.082032-22.636719 26.242187-26.046875 40.707031-60.800781 40.707031-97.855469 0-76.457031-62.210938-138.667969-138.667969-138.667969s-138.667969 62.210938-138.667969 138.667969c0 37.054688 14.464844 71.808594 40.707031 97.878906 6.269532 6.226563 6.3125 16.359375.082032 22.632813-6.226563 6.273437-16.339844 6.316406-22.632813.085937-32.339843-32.128906-50.15625-74.945312-50.15625-120.597656 0-94.101562 76.566407-170.667969 170.667969-170.667969s170.667969 76.566407 170.667969 170.667969c0 45.652344-17.816407 88.46875-50.175781 120.574219-3.117188 3.09375-7.191407 4.652343-11.265626 4.652343zm0 0"/></svg>