<svg height="512pt" viewBox="0 0 512 512" width="512pt" xmlns="http://www.w3.org/2000/svg"><path d="m453.332031 512h-394.664062c-32.363281 0-58.667969-26.304688-58.667969-58.667969v-394.664062c0-32.363281 26.304688-58.667969 58.667969-58.667969h394.664062c32.363281 0 58.667969 26.304688 58.667969 58.667969v394.664062c0 32.363281-26.304688 58.667969-58.667969 58.667969zm-394.664062-480c-14.699219 0-26.667969 11.96875-26.667969 26.667969v394.664062c0 14.699219 11.96875 26.667969 26.667969 26.667969h394.664062c14.699219 0 26.667969-11.96875 26.667969-26.667969v-394.664062c0-14.699219-11.96875-26.667969-26.667969-26.667969zm0 0"/><path d="m325.332031 362.667969h-138.664062c-20.589844 0-37.335938-16.746094-37.335938-37.335938v-138.664062c0-20.589844 16.746094-37.335938 37.335938-37.335938h138.664062c20.589844 0 37.335938 16.746094 37.335938 37.335938v138.664062c0 20.589844-16.746094 37.335938-37.335938 37.335938zm-138.664062-181.335938c-2.945313 0-5.335938 2.390625-5.335938 5.335938v138.664062c0 2.945313 2.390625 5.335938 5.335938 5.335938h138.664062c2.945313 0 5.335938-2.390625 5.335938-5.335938v-138.664062c0-2.945313-2.390625-5.335938-5.335938-5.335938zm0 0"/></svg>