<svg height="512pt" viewBox="0 0 512 512.016" width="512pt" xmlns="http://www.w3.org/2000/svg"><path d="m453.339844 512.015625h-394.664063c-32.363281 0-58.6679685-26.304687-58.6679685-58.667969v-96c0-8.832031 7.1679685-16 15.9999995-16 8.832032 0 16 7.167969 16 16v96c0 14.699219 11.96875 26.667969 26.667969 26.667969h394.664063c14.699218 0 26.667968-11.96875 26.667968-26.667969v-96c0-8.832031 7.167969-16 16-16 8.832032 0 16 7.167969 16 16v96c0 32.363282-26.304687 58.667969-58.667968 58.667969zm0 0"/><path d="m256.007812 362.683594c-8.832031 0-16-7.167969-16-16v-330.667969c0-8.832031 7.167969-16 16-16 8.832032 0 16 7.167969 16 16v330.667969c0 8.832031-7.167968 16-16 16zm0 0"/><path d="m341.339844 117.347656c-4.09375 0-8.191406-1.554687-11.304688-4.691406l-74.027344-74.003906-74.027343 74.003906c-6.25 6.25-16.382813 6.25-22.632813 0s-6.25-16.382812 0-22.636719l85.332032-85.332031c6.25-6.25 16.382812-6.25 22.636718 0l85.332032 85.332031c6.25 6.253907 6.25 16.386719 0 22.636719-3.113282 3.136719-7.210938 4.691406-11.308594 4.691406zm0 0"/></svg>