<svg height="512pt" viewBox="-43 0 512 512" width="512pt" xmlns="http://www.w3.org/2000/svg"><path d="m16 512c-8.832031 0-16-7.167969-16-16v-480c0-8.832031 7.167969-16 16-16s16 7.167969 16 16v480c0 8.832031-7.167969 16-16 16zm0 0"/><path d="m240 277.332031h-224c-8.832031 0-16-7.167969-16-16s7.167969-16 16-16h224c2.945312 0 5.332031-2.386719 5.332031-5.332031v-202.667969c0-2.941406-2.386719-5.332031-5.332031-5.332031h-224c-8.832031 0-16-7.167969-16-16s7.167969-16 16-16h224c20.585938 0 37.332031 16.746094 37.332031 37.332031v202.667969c0 20.585938-16.746093 37.332031-37.332031 37.332031zm0 0"/><path d="m389.332031 362.667969h-213.332031c-20.585938 0-37.332031-16.746094-37.332031-37.335938v-64c0-8.832031 7.167969-16 16-16s16 7.167969 16 16v64c0 2.902344 2.429687 5.335938 5.332031 5.335938h213.332031c2.902344 0 5.335938-2.433594 5.335938-5.335938v-202.664062c0-2.902344-2.433594-5.335938-5.335938-5.335938h-128c-8.832031 0-16-7.167969-16-16s7.167969-16 16-16h128c20.589844 0 37.335938 16.746094 37.335938 37.335938v202.664062c0 20.589844-16.746094 37.335938-37.335938 37.335938zm0 0"/></svg>